<svg width="530" height="129" viewBox="0 0 530 129" fill="none" xmlns="http://www.w3.org/2000/svg">
<g clip-path="url(#clip0_1_1250)">
<g opacity="0.25">
<path d="M265 79.5C411.079 79.5 529.5 61.8152 529.5 40C529.5 18.1848 411.079 0.5 265 0.5C118.921 0.5 0.5 18.1848 0.5 40C0.5 61.8152 118.921 79.5 265 79.5Z" stroke="white"/>
<path d="M265 91.5C411.079 91.5 529.5 73.8152 529.5 52C529.5 30.1848 411.079 12.5 265 12.5C118.921 12.5 0.5 30.1848 0.5 52C0.5 73.8152 118.921 91.5 265 91.5Z" stroke="white"/>
<path d="M265 104.5C411.079 104.5 529.5 86.8152 529.5 65C529.5 43.1848 411.079 25.5 265 25.5C118.921 25.5 0.5 43.1848 0.5 65C0.5 86.8152 118.921 104.5 265 104.5Z" stroke="white"/>
<path d="M265 116.5C411.079 116.5 529.5 98.8152 529.5 77C529.5 55.1848 411.079 37.5 265 37.5C118.921 37.5 0.5 55.1848 0.5 77C0.5 98.8152 118.921 116.5 265 116.5Z" stroke="white"/>
<path d="M265 128.5C411.079 128.5 529.5 110.815 529.5 89C529.5 67.1848 411.079 49.5 265 49.5C118.921 49.5 0.5 67.1848 0.5 89C0.5 110.815 118.921 128.5 265 128.5Z" stroke="white"/>
</g>
</g>
<defs>
<clipPath id="clip0_1_1250">
<rect width="530" height="129" fill="white"/>
</clipPath>
</defs>
</svg>
