<svg width="25" height="25" viewBox="0 0 25 25" fill="none" xmlns="http://www.w3.org/2000/svg">
<g clip-path="url(#clip0_1_1419)">
<path d="M8.56208 18.7285C8.56208 18.8222 8.45427 18.8972 8.31833 18.8972C8.16365 18.9113 8.05584 18.8363 8.05584 18.7285C8.05584 18.6347 8.16365 18.5597 8.29959 18.5597C8.44021 18.5457 8.56208 18.6207 8.56208 18.7285ZM7.10427 18.5175C7.07146 18.6113 7.16521 18.7191 7.30584 18.7472C7.42771 18.7941 7.56834 18.7472 7.59646 18.6535C7.62459 18.5597 7.53552 18.4519 7.3949 18.4097C7.27302 18.3769 7.13708 18.4238 7.10427 18.5175ZM9.17615 18.4378C9.04021 18.4707 8.94646 18.5597 8.96052 18.6675C8.97458 18.7613 9.09646 18.8222 9.23709 18.7894C9.37302 18.7566 9.46677 18.6675 9.45271 18.5738C9.43865 18.4847 9.31209 18.4238 9.17615 18.4378ZM12.2605 0.475342C5.75896 0.475342 0.785522 5.41128 0.785522 11.9128C0.785522 17.1113 4.0574 21.5597 8.73083 23.1253C9.33084 23.2332 9.54177 22.8628 9.54177 22.5582C9.54177 22.2675 9.52771 20.6644 9.52771 19.68C9.52771 19.68 6.24646 20.3832 5.5574 18.2832C5.5574 18.2832 5.02302 16.9191 4.25427 16.5675C4.25427 16.5675 3.18083 15.8316 4.32927 15.8457C4.32927 15.8457 5.49646 15.9394 6.13865 17.055C7.16521 18.8644 8.88552 18.3441 9.55584 18.0347C9.66365 17.2847 9.96834 16.7644 10.3058 16.455C7.68552 16.1644 5.04177 15.7847 5.04177 11.2753C5.04177 9.98628 5.39802 9.3394 6.14802 8.5144C6.02615 8.20972 5.62771 6.95347 6.2699 5.33159C7.24959 5.0269 9.50427 6.59722 9.50427 6.59722C10.4418 6.33472 11.4496 6.19878 12.448 6.19878C13.4465 6.19878 14.4543 6.33472 15.3918 6.59722C15.3918 6.59722 17.6465 5.02222 18.6261 5.33159C19.2683 6.95815 18.8699 8.20972 18.748 8.5144C19.498 9.34409 19.9574 9.99097 19.9574 11.2753C19.9574 15.7988 17.1965 16.1597 14.5761 16.455C15.0074 16.8253 15.373 17.5285 15.373 18.63C15.373 20.2097 15.359 22.1644 15.359 22.5488C15.359 22.8535 15.5746 23.2238 16.1699 23.116C20.8574 21.5597 24.0355 17.1113 24.0355 11.9128C24.0355 5.41128 18.7621 0.475342 12.2605 0.475342ZM5.34177 16.6425C5.28083 16.6894 5.2949 16.7972 5.37459 16.8863C5.44958 16.9613 5.5574 16.9941 5.61833 16.9332C5.67927 16.8863 5.66521 16.7785 5.58552 16.6894C5.51052 16.6144 5.40271 16.5816 5.34177 16.6425ZM4.83552 16.2628C4.80271 16.3238 4.84958 16.3988 4.94333 16.4457C5.01833 16.4925 5.11208 16.4785 5.1449 16.4128C5.17771 16.3519 5.13083 16.2769 5.03708 16.23C4.94333 16.2019 4.86834 16.216 4.83552 16.2628ZM6.35427 17.9316C6.27927 17.9925 6.3074 18.1332 6.41521 18.2222C6.52302 18.33 6.65896 18.3441 6.7199 18.2691C6.78083 18.2082 6.75271 18.0675 6.65896 17.9785C6.55584 17.8707 6.41521 17.8566 6.35427 17.9316ZM5.8199 17.2425C5.7449 17.2894 5.7449 17.4113 5.8199 17.5191C5.8949 17.6269 6.02146 17.6738 6.0824 17.6269C6.1574 17.566 6.1574 17.4441 6.0824 17.3363C6.01677 17.2285 5.8949 17.1816 5.8199 17.2425Z" fill="white"/>
</g>
<defs>
<clipPath id="clip0_1_1419">
<rect width="24" height="24" fill="white" transform="translate(0.410522 0.100342)"/>
</clipPath>
</defs>
</svg>
