<svg width="25" height="25" viewBox="0 0 25 25" fill="none" xmlns="http://www.w3.org/2000/svg">
<path d="M21.4105 1.60034H3.40583C2.58083 1.60034 1.91052 2.28003 1.91052 3.1144V21.0863C1.91052 21.9207 2.58083 22.6003 3.40583 22.6003H21.4105C22.2355 22.6003 22.9105 21.9207 22.9105 21.0863V3.1144C22.9105 2.28003 22.2355 1.60034 21.4105 1.60034ZM8.2574 19.6003H5.1449V9.57847H8.26208V19.6003H8.2574ZM6.70115 8.20972C5.70271 8.20972 4.89646 7.39878 4.89646 6.40503C4.89646 5.41128 5.70271 4.60034 6.70115 4.60034C7.6949 4.60034 8.50583 5.41128 8.50583 6.40503C8.50583 7.40347 7.69958 8.20972 6.70115 8.20972ZM19.9246 19.6003H16.8121V14.7253C16.8121 13.5628 16.7886 12.0675 15.1949 12.0675C13.573 12.0675 13.3246 13.3332 13.3246 14.641V19.6003H10.2121V9.57847H13.198V10.9472H13.2402C13.6574 10.1597 14.6746 9.33003 16.1886 9.33003C19.3386 9.33003 19.9246 11.4066 19.9246 14.1066V19.6003Z" fill="white"/>
</svg>
